{"title":"Night Skies-AC3-XviD-DVDRip 2007 TBS","uid":6129957,"size":1567870646,"categoryP":"video","categoryS":"movies","magnet":"?xt=urn:btih:058f38d6ac726f05caf93bcce562b10fcba567c1&amp;dn=Night+Skies-AC3-XviD-DVDRip+2007+TBS&amp;tr=udp%3A%2F%2Ftracker.openbittorrent.com%3A80&amp;tr=udp%3A%2F%2Fopen.demonii.com%3A1337&amp;tr=udp%3A%2F%2Ftracker.coppersurfer.tk%3A6969&amp;tr=udp%3A%2F%2Fexodus.desync.com%3A6969","seeders":1,"leechers":1,"uploader":"FatFreddy30","files":-1,"time":1296083915,"description":"On March 13th, 1997 one of the largest UFO sightings ever recorded took place across the southwestern United States. The event became known as the 'Phoenix Lights' and was witnessed by community leaders, members of law enforcement, as well as thousands of everyday citizens. This true story, based on transcripts from actual hypnosis-therapy sessions, finally reveals what happened after the infamous incident ended and how six people, stranded by chance on a forgotten road, encountered more than just lights in the sky.\n &lt;a href=&quot;\nhttp://www.imdb.com/title/tt0460883/&quot; rel=&quot;nofollow&quot; target=&quot;_NEW&quot;&gt;\nhttp://www.imdb.com/title/tt0460883/&lt;/a&gt;\n\nSubs: Dutch (srt).\n\n\nEen groep vrienden rijden op 13 maart 1997 over een rustig afgelegen weggetje totdat zij vreemde lichten in de lucht zien. Omdat Matt even niet op de weg let krijgen ze een ongeluk. Een van de vrienden ziet een mysterieuze schim buiten en wil weten wat het is. Maar dat is waarschijnlijk niet zo'n goed idee.\n &lt;a href=&quot;\nhttp://www.moviemeter.nl/film/36330&quot; rel=&quot;nofollow&quot; target=&quot;_NEW&quot;&gt;\nhttp://www.moviemeter.nl/film/36330&lt;/a&gt;\n\nOndertitels: Nederlands (srt).\n\nGeneral\nComplete name                    : Night Skies-AC3-XviD-DVDRip 2007 TBS\\Night Skies-AC3-XviD-DVDRip 2007 TBS.avi\nFormat                           : AVI\nFormat/Info                      : Audio Video Interleave\nFile size                        : 1.46 GiB\nDuration                         : 1h 24mn\nOverall bit rate                 : 2 477 Kbps\nWriting application              : VirtualDubMod 1.5.4.1 (build 2178/release)\nWriting library                  : VirtualDubMod build 2178/release\n\nVideo\nID                               : 0\nFormat                           : MPEG-4 Visual\nFormat profile                   : Simple@L3\nFormat settings, BVOP            : No\nFormat settings, QPel            : No\nFormat settings, GMC             : No warppoints\nFormat settings, Matrix          : Default (H.263)\nCodec ID                         : XVID\nCodec ID/Hint                    : XviD\nDuration                         : 1h 24mn\nBit rate                         : 2 020 Kbps\nWidth                            : 720 pixels\nHeight                           : 400 pixels\nDisplay aspect ratio             : 16:9\nFrame rate                       : 23.976 fps\nResolution                       : 8 bits\nColorimetry                      : 4:2:0\nScan type                        : Progressive\nBits/(Pixel*Frame)               : 0.293\nStream size                      : 1.19 GiB (82%)\nWriting library                  : XviD 1.1.2 (UTC 2006-11-01)\n\nAudio\nID                               : 1\nFormat                           : AC-3\nFormat/Info                      : Audio Coding 3\nCodec ID                         : 2000\nDuration                         : 1h 24mn\nBit rate mode                    : Constant\nBit rate                         : 448 Kbps\nChannel(s)                       : 6 channels\nChannel positions                : Front: L C R, Surround: L R, LFE\nSampling rate                    : 48.0 KHz\nStream size                      : 270 MiB (18%)\nAlignment                        : Split accross interleaves\nInterleave, duration             : 42 ms (1.00 video frame)\nInterleave, preload duration     : 500 ms\n\nBlackbeard  TBS.","torrent":{"xt":"urn:btih:058f38d6ac726f05caf93bcce562b10fcba567c1","amp;dn":"Night+Skies-AC3-XviD-DVDRip+2007+TBS","amp;tr":["udp%3A%2F%2Ftracker.openbittorrent.com%3A80","udp%3A%2F%2Fopen.demonii.com%3A1337","udp%3A%2F%2Ftracker.coppersurfer.tk%3A6969","udp%3A%2F%2Fexodus.desync.com%3A6969"],"infoHash":"058f38d6ac726f05caf93bcce562b10fcba567c1","infoHashBuffer":{"type":"Buffer","data":[5,143,56,214,172,114,111,5,202,249,59,204,229,98,177,15,203,165,103,193]},"announce":[],"urlList":[]}}